<svg width="37" height="15" viewBox="0 0 37 15" fill="none" xmlns="http://www.w3.org/2000/svg">
<path d="M6.10961 0.000400598C4.97701 0.000476684 3.86672 0.321936 2.90273 0.928882C1.93874 1.53583 1.159 2.40437 0.650569 3.43751C0.222788 4.30648 0 5.26552 0 6.23804C0 7.21055 0.222788 8.1696 0.650569 9.03856C1.159 10.0717 1.93874 10.9402 2.90273 11.5472C3.86672 12.1541 4.97701 12.4756 6.10961 12.4757C7.7592 12.4757 9.1467 11.9217 10.1596 10.9696C11.3127 9.88367 11.9787 8.27843 11.9787 6.38046C11.9784 5.95527 11.9423 5.53089 11.8708 5.112H6.11115V7.51358H9.41032C9.34316 7.89721 9.20064 8.263 8.99133 8.58891C8.78202 8.91482 8.51025 9.19411 8.19241 9.40997C7.64357 9.78925 6.93749 10.0064 6.11115 10.0064C4.51707 10.0064 3.16503 8.90951 2.68094 7.43174C2.42528 6.65734 2.42528 5.81874 2.68094 5.04433C3.16503 3.56499 4.51707 2.46964 6.11115 2.46964C6.9822 2.4551 7.8239 2.79088 8.45449 3.40446L10.1997 1.6261C9.09388 0.565136 7.62706 -0.0175003 6.10961 0.000400598ZM16.132 0.865974V11.725H17.4979V7.3263H19.7565C20.6861 7.3263 21.4677 7.01784 22.1029 6.40092C22.4191 6.11159 22.6702 5.7559 22.8392 5.35823C23.0082 4.96055 23.0909 4.53029 23.0818 4.09692C23.0883 3.66579 23.0042 3.23825 22.8354 2.84303C22.6665 2.4478 22.4168 2.09404 22.1029 1.80551C21.792 1.49823 21.4246 1.25686 21.0219 1.09533C20.6192 0.933795 20.1891 0.855309 19.7565 0.8644L16.132 0.865974ZM19.8736 2.20368C20.112 2.20792 20.3471 2.26095 20.565 2.35962C20.783 2.45829 20.9793 2.60059 21.1424 2.7781C21.3161 2.95057 21.4542 3.15684 21.5485 3.38471C21.6427 3.61258 21.6913 3.85743 21.6913 4.10479C21.6913 4.35215 21.6427 4.597 21.5485 4.82487C21.4542 5.05274 21.3161 5.25901 21.1424 5.43148C20.9678 5.61606 20.7573 5.76137 20.5245 5.85812C20.2917 5.95487 20.0416 6.00092 19.7904 5.99332H17.4979V2.20368H19.7904C19.8181 2.20302 19.8459 2.20302 19.8736 2.20368ZM26.2315 4.05286C24.9334 4.05286 23.9544 4.53758 23.2915 5.50859L24.4955 6.28132C24.9395 5.62505 25.5439 5.29614 26.307 5.29614C26.7939 5.29003 27.2651 5.47154 27.6267 5.80446C27.8047 5.95471 27.9476 6.14353 28.0452 6.35722C28.1428 6.57091 28.1926 6.8041 28.1909 7.03987V7.35777C27.6667 7.05404 26.9977 6.90295 26.1867 6.90295C25.2355 6.90295 24.4755 7.13115 23.9066 7.58597C23.3362 8.03922 23.0525 8.65141 23.0525 9.41941C23.0463 9.76503 23.1158 10.1077 23.2558 10.4224C23.3958 10.7372 23.6029 11.016 23.8619 11.2387C24.4015 11.7234 25.0721 11.9673 25.8738 11.9673C26.8142 11.9673 27.5665 11.5424 28.1323 10.6926H28.1909V11.7234H29.4982V7.14531C29.4982 6.18531 29.2053 5.42991 28.6226 4.87909C28.0367 4.32827 27.2412 4.05286 26.2315 4.05286ZM29.7202 4.29522L32.7203 11.2544L31.0276 15H32.4382L37 4.29364H35.5123L33.4033 9.6303H33.3725L31.2049 4.29522H29.7202ZM26.4118 8.0219C27.1734 8.0219 27.7685 8.19502 28.194 8.54125C28.194 9.12669 27.9674 9.63659 27.5157 10.0725C27.108 10.4888 26.5552 10.7231 25.9786 10.7241C25.5933 10.7316 25.2174 10.6025 24.9149 10.359C24.7741 10.255 24.6596 10.1182 24.5811 9.95999C24.5025 9.80177 24.4621 9.62669 24.4632 9.44931C24.4632 9.04486 24.6482 8.70964 25.0228 8.43108C25.3928 8.15882 25.8568 8.0219 26.4118 8.0219Z" fill="black"/>
</svg>
