<svg width="285" height="352" viewBox="0 0 285 352" fill="none" xmlns="http://www.w3.org/2000/svg">
<path fill-rule="evenodd" clip-rule="evenodd" d="M267.864 31.835C272.658 148.169 210.682 250.216 112.035 288.423C82.8142 299.738 78.9153 299.487 98.3874 287.541C183.818 235.129 222.082 141.53 200.081 38.773C194.582 13.0829 193.281 14.3962 195.871 43.0242C204.171 134.763 158.303 224.789 82.9847 264.589C68.0226 272.495 67.8589 272.214 81.1933 261.495C118.311 231.654 137.925 187.236 138.556 131.597C138.679 120.759 138.113 115.418 136.766 114.702C135.462 114.008 134.947 115.987 135.241 120.551C142.881 239.057 3.46186 310.507 -85.0032 233.422C-93.8923 225.675 -101.124 219.993 -101.072 220.796C-98.607 259.034 -23.9051 343.901 12.606 349.944C166.627 375.436 301.182 230.981 283.387 59.239C277.051 -1.90472 265.644 -22.0429 267.864 31.835Z" fill="black" fill-opacity="0.03"/>
</svg>
