<svg width="12" height="14" viewBox="0 0 12 14" fill="none" xmlns="http://www.w3.org/2000/svg">
<path d="M4.41592 8.12703C4.49539 8.12703 6.33913 8.20839 7.43583 7.93179H7.44378C8.70737 7.61452 10.4637 6.70338 10.9167 3.72591C10.9167 3.72591 11.926 0 6.91927 0H2.61987C2.23046 0 1.89668 0.292866 1.8331 0.683354L0.00526179 12.5282C-0.0344739 12.7722 0.156257 13 0.394671 13H3.12054L3.7881 8.67209C3.83578 8.36295 4.09804 8.12703 4.41592 8.12703Z" fill="black"/>
<path d="M11.5198 4C10.9061 6.9347 8.97407 8.48466 5.898 8.48466H4.78425L4.00387 13.6145C3.97357 13.819 4.1251 14 4.32209 14H5.76163C6.01923 14 6.24652 13.8033 6.28441 13.5358C6.34502 13.2211 6.67838 10.9237 6.74657 10.5303C6.78446 10.2628 7.01175 10.0661 7.26935 10.0661H7.60272C9.7393 10.0661 11.4137 9.16129 11.9062 6.55704C12.1032 5.50275 11.9971 4.63729 11.5198 4Z" fill="black"/>
</svg>
